<svg xmlns="http://www.w3.org/2000/svg" width="24" height="24" viewBox="0 0 24 24" fill="none" stroke="#ff6a00" stroke-width="2.2" stroke-linecap="round" stroke-linejoin="round" style="transform: rotate(45deg); transform-origin: center;">
  <path d="M12 3c2.5 0 4.5 3.5 4.5 8v4h-9v-4c0-4.5 2-8 4.5-8z" />
  <path d="M7.5 12c-2.2.5-3.2 2-3.2 3.5 1.5 0 2.7-1 3.2-2.5" />
  <path d="M16.5 12c2.2.5 3.2 2 3.2 3.5-1.5 0-2.7-1-3.2-2.5" />
  <circle cx="12" cy="9.5" r="1.5" />
  <path d="M9.5 16c-.5 2.5-2 3.5-2.5 4.2.8.2 1.8-.5 2.2-1.5.3 1.5 1.3 2.3 2.8 2.3s2.5-.8 2.8-2.3c.4 1 1.4 1.7 2.2 1.5-.5-.7-2-1.7-2.5-4.2" />
</svg>
